<?xml version="1.0" encoding="utf-8"?>
<!-- Generator: Adobe Illustrator 25.4.1, SVG Export Plug-In . SVG Version: 6.00 Build 0)  -->
<svg version="1.1" id="Layer_1" xmlns="http://www.w3.org/2000/svg" xmlns:xlink="http://www.w3.org/1999/xlink" x="0px" y="0px"
	 viewBox="0 0 512 499.2" style="enable-background:new 0 0 512 499.2;" xml:space="preserve">
<style type="text/css">
	.st0{fill:#47BEC7;enable-background:new    ;}
</style>
<g>
	<path class="st0" d="M189,164.8c-8.5,0-16.5,0.4-20.2,0.7v81.8h-0.2c5,0.4,8.7,0.4,17.1,0.4c24.7,0,47.9-8.7,47.9-42.3
		C233.7,178.5,217.2,164.8,189,164.8z"/>
	<path class="st0" d="M419.9,0h-326C42.1,0,0,42.1,0,93.9v313.2c0,50.7,41.5,92.1,92.1,92.1h327.8c50.7,0,92.1-41.5,92.1-92.1v-315
		C512,41.5,470.5,0,419.9,0z M185.1,281.5c-8,0-10.8-0.4-16.5-0.4v81.3c0,1.7-0.7,2.4-2.4,2.4h-32.7c-1.7,0-2.4-0.7-2.4-2.4V134.9
		h-0.2v0c0-1.3,0.4-2.4,2.2-2.4c13.7-0.7,33.6-1.1,54.4-1.1c58.6,0,84.1,32.1,84.1,73.3C271.6,258.5,232.8,281.5,185.1,281.5z
		 M379,163.8c0,1.7-0.6,2.4-2.4,2.1c-2.8-0.6-6.6-1.1-9.2-1.1c-12,0-18,8.6-18,25.3v10.7h27.2c1.7,0,2.1,0.4,2.1,1.7v28.7
		c0,1.7-0.4,2.1-2.1,2.4h-27.2v128.8c0,1.3-0.4,2.4-2.4,2.4h-32.8c-1.7,0-2.4-1.1-2.4-2.4V233.6h-19.5h0v0.2c-1.3,0-1.7-0.6-1.7-2.4
		V203c0-1.7,0.4-2.1,1.7-2.1h19.3v-10.7c0-12.9,2.1-23.8,6.9-33.2c8.6-17.6,23.4-25.5,44.1-25.5c6.2,0,10.7,0.4,14.1,1.7
		c1.7,0.6,2.1,1.3,2.1,3V163.8z"/>
</g>
</svg>
