<svg id="_04-slide" data-name="04-slide" xmlns="http://www.w3.org/2000/svg" viewBox="0 0 40 40"><defs><style>.cls-1{fill:#00e174;}</style></defs><g id="After_Effects" data-name="After Effects"><g id="Прямоугольник_3" data-name="Прямоугольник 3"><path class="cls-1" d="M33.75,1.5A4.75,4.75,0,0,1,38.5,6.25v27.5a4.75,4.75,0,0,1-4.75,4.75H6.25A4.75,4.75,0,0,1,1.5,33.75V6.25A4.75,4.75,0,0,1,6.25,1.5h27.5m0-1.5H6.25A6.25,6.25,0,0,0,0,6.25v27.5A6.25,6.25,0,0,0,6.25,40h27.5A6.25,6.25,0,0,0,40,33.75V6.25A6.25,6.25,0,0,0,33.75,0Z"/></g><g id="Контур_4" data-name="Контур 4"><path class="cls-1" d="M16.43,24.42H10.32l-1.24,4a.31.31,0,0,1-.32.24H5.67c-.18,0-.24-.09-.19-.29l5.29-15c.05-.16.11-.34.16-.54a5.46,5.46,0,0,0,.1-1.07.18.18,0,0,1,.14-.19h4.25c.12,0,.2.05.21.14l6,16.7c.06.17,0,.26-.16.26H18a.24.24,0,0,1-.27-.18Zm-5.16-2.81h4.18c-.11-.36-.23-1.08-.37-1.52l-.45-1.41-.48-1.51c-.16-.5-.3-1-.43-1.45s-.25-.9-.36-1.28h0a21.79,21.79,0,0,1-.55,2.11L12,19C11.77,19.81,11.52,20.9,11.27,21.61Z"/></g><g id="Контур_5" data-name="Контур 5"><path class="cls-1" d="M31.32,23h-5.2a4.07,4.07,0,0,0,.53,1.51,2.72,2.72,0,0,0,1.21,1,5.24,5.24,0,0,0,2.14.46,7.39,7.39,0,0,0,1.48-.12A6.83,6.83,0,0,0,33,25.36c.09-.07.13,0,.13.13V28a.34.34,0,0,1,0,.2.68.68,0,0,1-.12.12,7.55,7.55,0,0,1-1.72.57,10.23,10.23,0,0,1-2.14.08A7.57,7.57,0,0,1,26,28.39a5.64,5.64,0,0,1-2.06-1.56,6.11,6.11,0,0,1-1.14-2.15,8.54,8.54,0,0,1,.07-5,6.78,6.78,0,0,1,1.23-2.25,5.76,5.76,0,0,1,4.73-2.12,6.53,6.53,0,0,1,2.69.53,4.5,4.5,0,0,1,1.73,1.36,6.26,6.26,0,0,1,1,1.86,6.54,6.54,0,0,1,.31,2c0,.39,0,.74,0,1.06a3.66,3.66,0,0,1-.1.56.23.23,0,0,1-.23.21,5.1,5.1,0,0,0-.55,0c-.25,0-.71,0-1.08,0Zm-5.22-2.1h3.46l.94,0a1.58,1.58,0,0,0,.38,0v-.15a4.3,4.3,0,0,0-.05-1,2.17,2.17,0,0,0-2.14-1.51,2.3,2.3,0,0,0-2.18,1.25A5.38,5.38,0,0,0,26.1,20.88Z"/></g></g></svg>