<?xml version="1.0" encoding="utf-8"?>
<!-- Generator: Adobe Illustrator 25.4.1, SVG Export Plug-In . SVG Version: 6.00 Build 0)  -->
<svg version="1.1" id="_04-slide" xmlns="http://www.w3.org/2000/svg" xmlns:xlink="http://www.w3.org/1999/xlink" x="0px" y="0px"
	 viewBox="0 0 40 40" style="enable-background:new 0 0 40 40;" xml:space="preserve">
<style type="text/css">
	.st0{fill:#02012B;}
	.st1{fill:#47BEC7;}
</style>
<rect class="st0" width="40" height="40"/>
<g id="Illustrator">
	<g id="Прямоугольник_16">
		<path class="st1" d="M33.8,1.5c2.6,0,4.8,2.1,4.8,4.8v27.5c0,2.6-2.1,4.8-4.8,4.8H6.2c-2.6,0-4.8-2.1-4.8-4.8V6.2
			c0-2.6,2.1-4.8,4.8-4.8H33.8 M33.8,0H6.2C2.8,0,0,2.8,0,6.2v27.5C0,37.2,2.8,40,6.2,40h27.5c3.5,0,6.2-2.8,6.2-6.2V6.2
			C40,2.8,37.2,0,33.8,0z"/>
	</g>
	<g id="Контур_30">
		<path class="st1" d="M19.5,24.4h-6.1l-1.2,4.1c0,0.1-0.2,0.2-0.3,0.2H8.7c-0.2,0-0.2-0.1-0.2-0.3l5.3-15.2
			c0.1-0.1,0.1-0.3,0.2-0.5c0.1-0.3,0.1-0.6,0.1-0.9c0-0.1,0.1-0.2,0.1-0.2h4.2c0.1,0,0.2,0.1,0.2,0.1l6,16.7c0.1,0.2,0,0.3-0.1,0.3
			h-3.4c-0.1,0-0.2-0.1-0.3-0.2L19.5,24.4z M14.3,21.5h4.5c-0.1-0.4-0.5-1.2-0.6-1.6s-0.3-0.8-0.5-1.3l-0.5-1.5
			c-0.2-0.5-0.3-1-0.4-1.4s-0.2-0.9-0.4-1.3l0,0c-0.1,0.7-0.3,1.4-0.6,2.1s-0.5,1.6-0.8,2.4S14.6,20.8,14.3,21.5L14.3,21.5z"/>
	</g>
	<g id="Контур_31">
		<path class="st1" d="M28.3,14.3c-0.5,0-1.1-0.2-1.5-0.6c-0.4-0.4-0.6-1-0.6-1.5c0-0.5,0.2-1.1,0.6-1.5c0.4-0.4,0.9-0.6,1.5-0.6
			c0.6,0,1.1,0.2,1.5,0.6c0.4,0.4,0.6,0.9,0.5,1.5c0,0.6-0.2,1.1-0.6,1.5C29.4,14.1,28.8,14.3,28.3,14.3z M26.6,28.4V16.3
			c0-0.2,0.1-0.2,0.2-0.2h3c0.1,0,0.2,0.1,0.2,0.2v12.1c0,0.2-0.1,0.3-0.2,0.3h-3C26.6,28.7,26.6,28.6,26.6,28.4z"/>
	</g>
</g>
</svg>
