<svg id="_04-slide" data-name="04-slide" xmlns="http://www.w3.org/2000/svg" viewBox="0 0 40 40"><defs><style>.cls-1{fill:#00e174;}</style></defs><g id="Illustrator"><g id="Прямоугольник_16" data-name="Прямоугольник 16"><path class="cls-1" d="M33.75,1.5A4.75,4.75,0,0,1,38.5,6.25v27.5a4.75,4.75,0,0,1-4.75,4.75H6.25A4.75,4.75,0,0,1,1.5,33.75V6.25A4.75,4.75,0,0,1,6.25,1.5h27.5m0-1.5H6.25A6.25,6.25,0,0,0,0,6.25v27.5A6.25,6.25,0,0,0,6.25,40h27.5A6.25,6.25,0,0,0,40,33.75V6.25A6.25,6.25,0,0,0,33.75,0Z"/></g><g id="Контур_30" data-name="Контур 30"><path class="cls-1" d="M19.5,24.35H13.4l-1.25,4.08a.32.32,0,0,1-.32.24H8.74c-.18,0-.24-.1-.19-.29l5.28-15.23c.05-.15.1-.34.16-.54a3.88,3.88,0,0,0,.1-.9.18.18,0,0,1,.14-.19h4.25c.12,0,.19.05.21.14l6,16.74c.06.18,0,.27-.15.27H21.11a.24.24,0,0,1-.26-.19Zm-5.18-2.81h4.47c-.11-.35-.47-1.17-.61-1.61s-.34-.79-.49-1.29l-.48-1.51c-.16-.5-.3-1-.44-1.45s-.25-.9-.35-1.28h0c-.15.71-.34,1.42-.56,2.11s-.49,1.6-.75,2.43-.52,1.89-.76,2.6Z"/></g><g id="Контур_31" data-name="Контур 31"><path class="cls-1" d="M28.28,14.28a1.91,1.91,0,0,1-1.45-.58,2.1,2.1,0,0,1-.56-1.51,2,2,0,0,1,.59-1.46,2,2,0,0,1,1.47-.57,1.92,1.92,0,0,1,1.49.57,2,2,0,0,1,.55,1.46,2.1,2.1,0,0,1-.57,1.51A2,2,0,0,1,28.28,14.28ZM26.57,28.4V16.32q0-.24.21-.24h3q.21,0,.21.24V28.4q0,.27-.21.27h-3Q26.57,28.67,26.57,28.4Z"/></g></g></svg>