<?xml version="1.0" encoding="utf-8"?>
<!-- Generator: Adobe Illustrator 25.4.1, SVG Export Plug-In . SVG Version: 6.00 Build 0)  -->
<svg version="1.1" id="_04-slide" xmlns="http://www.w3.org/2000/svg" xmlns:xlink="http://www.w3.org/1999/xlink" x="0px" y="0px"
	 viewBox="0 0 40 40" style="enable-background:new 0 0 40 40;" xml:space="preserve">
<style type="text/css">
	.st0{fill:#273234;}
	.st1{fill:#80FFD2;}
	.st2{fill:#69CBA8;}
</style>
<path id="Прямоугольник_3_00000161629737317090138130000007825278309911336596_" class="st0" d="M6.2,0h27.5
	C37.2,0,40,2.8,40,6.2v27.5c0,3.5-2.8,6.2-6.2,6.2H6.2C2.8,40,0,37.2,0,33.8V6.2C0,2.8,2.8,0,6.2,0z"/>
<g>
	<path class="st1" d="M35.9,32.2C34.6,25.9,29,8.5,28.7,7.8c-0.2-0.7-0.3-1.3-1.6-1.7c-1.3-0.3-5.4-0.3-7.2-0.3s-5.8,0-7.2,0.3
		c-1.3,0.3-1.3,1-1.6,1.7C11,8.5,5.4,25.9,4.1,32.2c-0.3,1.5,0.1,1.7,1,1.9c0.9,0.2,9.3,0.2,10.2,0c0.9-0.2,1.1-0.5,1.4-1.9
		c0.1-0.3,0.2-1.2,0.5-2.4H20h2.9c0.2,1.2,0.4,2.1,0.5,2.4c0.3,1.4,0.4,1.7,1.4,1.9c0.9,0.2,9.3,0.2,10.2,0
		C35.8,33.9,36.3,33.7,35.9,32.2z M20,23.9h-1.7c0.8-3.8,1.5-7.6,1.7-8.2c0.1,0.5,0.9,4.3,1.7,8.2H20z"/>
	<path class="st2" d="M32.4,19.4L32.4,19.4C23.5,11.3,15.7,8.3,11.6,7c-0.2,0.3-0.2,0.6-0.3,0.9c0,0.1-0.2,0.5-0.4,1.1
		c4.8,1.4,13.3,4.8,22.5,14C33.1,21.8,32.7,20.6,32.4,19.4z M30.5,13.3c-3.2-3-8-5.9-10.6-7.4c-0.9,0-2.4,0-3.8,0
		c2.6,1,6.9,3,15.1,9.6C30.9,14.7,30.7,14,30.5,13.3z M28.7,7.8c-0.2-0.7-0.3-1.3-1.6-1.7c-0.2-0.1-0.6-0.1-1-0.2
		c0.9,0.7,1.9,1.5,2.7,2.2C28.8,8,28.8,7.9,28.7,7.8z M31.4,16.1L31.4,16.1c-5.7-5.2-12.8-8.9-16.5-10.2c0,0,0,0,0,0
		C14,6,13.3,6,12.8,6.2c-0.3,0.1-0.5,0.2-0.6,0.2c4.1,1.5,12.6,5.1,20,12.3C31.9,17.8,31.6,17,31.4,16.1z M33.7,23.8
		c-9.6-9.5-18.5-12.9-23-14.1c-0.3,0.9-0.6,2-1,3.3c1.9,0.4,5.6,1.5,10.1,3.9c0.1-0.6,0.2-1,0.2-1.1c0,0.2,0.2,0.7,0.3,1.4
		c4.4,2.4,9.6,6,14.8,11.6C34.7,27.2,34.2,25.6,33.7,23.8z M9.4,13.7c-0.4,1.2-0.8,2.5-1.2,3.9c2.4,0.4,6.2,1.2,10.8,3.2
		c0.2-1.2,0.5-2.3,0.6-3.2C15.3,15.3,11.6,14.2,9.4,13.7z M35.9,32.2c-0.1-0.6-0.3-1.2-0.5-2c0,0,0,0,0,0c-5-5.9-10.3-9.7-15-12.2
		c0.2,1.1,0.5,2.4,0.8,3.9v0c4.6,2.3,9.7,5.9,14.8,11.5C36.1,33,36,32.7,35.9,32.2z M6.6,22.7c-0.2,0.5-0.3,1.1-0.5,1.6
		c5.6,0.2,14.2,1.8,24.7,9.8h0.6C20.7,24.8,10.9,23,6.6,22.7z"/>
</g>
</svg>
