<svg id="_04-slide" data-name="04-slide" xmlns="http://www.w3.org/2000/svg" viewBox="0 0 40 40"><defs><style>.cls-1{fill:#00e174;}.cls-2{fill:#2d3038;}.cls-3{fill:#0acf83;}.cls-4{fill:#a259ff;}.cls-5{fill:#f24e1e;}</style></defs><path class="cls-1" d="M33.75,1.5A4.75,4.75,0,0,1,38.5,6.25v27.5a4.75,4.75,0,0,1-4.75,4.75H11.49V1.5H33.75m0-1.5H10V40H33.75A6.25,6.25,0,0,0,40,33.75V6.25A6.25,6.25,0,0,0,33.75,0Z"/><path class="cls-2" d="M6.25,0A6.25,6.25,0,0,0,0,6.25v27.5A6.25,6.25,0,0,0,6.25,40H20V0Z"/><path id="path0_fill" data-name="path0 fill" class="cls-3" d="M15,35.23a5,5,0,0,0,5-5v-5H15a5,5,0,0,0,0,9.94Z"/><path id="path1_fill" data-name="path1 fill" class="cls-4" d="M10.06,20.32a5,5,0,0,1,5-5h5v9.94H15A5,5,0,0,1,10.06,20.32Z"/><path id="path1_fill-2" data-name="path1 fill" class="cls-5" d="M10.06,10.38a5,5,0,0,1,5-5h5v9.94H15A5,5,0,0,1,10.06,10.38Z"/><path id="path2_fill" data-name="path2 fill" class="cls-1" d="M20,5.41h5a5,5,0,1,1,0,9.94H20Z"/><path id="path3_fill" data-name="path3 fill" class="cls-1" d="M29.94,20.32a5,5,0,1,1-5-5A5,5,0,0,1,29.94,20.32Z"/></svg>