<?xml version="1.0" encoding="utf-8"?>
<!-- Generator: Adobe Illustrator 25.4.1, SVG Export Plug-In . SVG Version: 6.00 Build 0)  -->
<svg version="1.1" id="_04-slide" xmlns="http://www.w3.org/2000/svg" xmlns:xlink="http://www.w3.org/1999/xlink" x="0px" y="0px"
	 viewBox="0 0 40 40" style="enable-background:new 0 0 40 40;" xml:space="preserve">
<style type="text/css">
	.st0{fill:#02012B;}
	.st1{fill:#47BEC7;}
</style>
<rect class="st0" width="40" height="40"/>
<path class="st1" d="M33.8,1.5c2.6,0,4.8,2.1,4.8,4.8v27.5c0,2.6-2.1,4.8-4.8,4.8H6.2c-2.6,0-4.8-2.1-4.8-4.8V6.2
	c0-2.6,2.1-4.8,4.8-4.8H33.8 M33.8,0H6.2C2.8,0,0,2.8,0,6.2v27.5C0,37.2,2.8,40,6.2,40h27.5c3.5,0,6.2-2.8,6.2-6.2V6.2
	C40,2.8,37.2,0,33.8,0z"/>
<path id="path0_fill" class="st1" d="M15,35.2c2.8,0,5-2.2,5-5v-5h-5c-2.7,0.3-4.7,2.8-4.4,5.5C10.8,33.1,12.7,34.9,15,35.2L15,35.2
	z"/>
<path id="path1_fill" class="st1" d="M10.1,20.3c0-2.8,2.2-5,5-5h5v9.9H15C12.3,25.2,10.1,23,10.1,20.3z"/>
<path id="path1_fill-2" class="st1" d="M10.1,10.4c0-2.8,2.2-5,5-5h5v9.9H15C12.3,15.3,10.1,13.1,10.1,10.4z"/>
<path id="path2_fill" class="st1" d="M20,5.4h5c2.7-0.3,5.2,1.7,5.5,4.4s-1.7,5.2-4.4,5.5c-0.4,0-0.7,0-1.1,0h-5V5.4z"/>
<path id="path3_fill" class="st1" d="M29.9,20.3c0,2.8-2.2,5-5,5s-5-2.2-5-5s2.2-5,5-5S29.9,17.6,29.9,20.3z"/>
</svg>
