<svg id="_04-slide" data-name="04-slide" xmlns="http://www.w3.org/2000/svg" viewBox="0 0 40 40"><defs><style>.cls-1{fill:#49021f;}.cls-2{fill:#f36;}</style></defs><g id="InDesign"><rect id="Прямоугольник_18" data-name="Прямоугольник 18" class="cls-1" width="40" height="40" rx="6.25"/><path id="Контур_34" data-name="Контур 34" class="cls-2" d="M14.21,11.83V28.4c0,.17-.08.26-.24.26H11c-.14,0-.21-.09-.21-.26V11.83c0-.14.07-.21.23-.21h3a.2.2,0,0,1,.21.16v.05Z"/><path id="Контур_35" data-name="Контур 35" class="cls-2" d="M24,29a8.14,8.14,0,0,1-3.53-.74A5.61,5.61,0,0,1,18,26.05a7.29,7.29,0,0,1-.9-3.74,6.91,6.91,0,0,1,.9-3.47,6.64,6.64,0,0,1,2.62-2.53,8.33,8.33,0,0,1,4.15-.95h.34l.65,0v-5c0-.13,0-.19.16-.19H29a.14.14,0,0,1,.16.12V25.8c0,.3,0,.62,0,1s.05.67.06.95a.27.27,0,0,1-.15.27,12,12,0,0,1-2.55.79A13.57,13.57,0,0,1,24,29Zm1.76-3.28V18.53a3.85,3.85,0,0,0-.58-.08,4.89,4.89,0,0,0-.54,0,4.18,4.18,0,0,0-1.85.42,3.42,3.42,0,0,0-1.93,3.31,4.64,4.64,0,0,0,.27,1.69A3.29,3.29,0,0,0,21.89,25a2.81,2.81,0,0,0,1.11.66,4,4,0,0,0,1.37.21c.24,0,.47,0,.68,0a4.43,4.43,0,0,0,.73-.11Z"/></g></svg>