<?xml version="1.0" encoding="utf-8"?>
<!-- Generator: Adobe Illustrator 25.4.1, SVG Export Plug-In . SVG Version: 6.00 Build 0)  -->
<svg version="1.1" id="_04-slide" xmlns="http://www.w3.org/2000/svg" xmlns:xlink="http://www.w3.org/1999/xlink" x="0px" y="0px"
	 viewBox="0 0 40 40" style="enable-background:new 0 0 40 40;" xml:space="preserve">
<style type="text/css">
	.st0{fill:#02012B;}
	.st1{fill:#47BEC7;}
</style>
<rect class="st0" width="40" height="40"/>
<g id="InDesign">
	<g id="Прямоугольник_18">
		<path class="st1" d="M33.8,1.5c2.6,0,4.8,2.1,4.8,4.8v27.5c0,2.6-2.1,4.8-4.8,4.8H6.2c-2.6,0-4.8-2.1-4.8-4.8V6.2
			c0-2.6,2.1-4.8,4.8-4.8H33.8 M33.8,0H6.2C2.8,0,0,2.8,0,6.2v27.5C0,37.2,2.8,40,6.2,40h27.5c3.5,0,6.2-2.8,6.2-6.2V6.2
			C40,2.8,37.2,0,33.8,0z"/>
	</g>
	<g id="Контур_34">
		<path class="st1" d="M14.2,11.8v16.6c0,0.2-0.1,0.3-0.2,0.3h-3c-0.1,0-0.2-0.1-0.2-0.3V11.8c0-0.1,0.1-0.2,0.2-0.2h3
			C14.1,11.6,14.2,11.7,14.2,11.8L14.2,11.8L14.2,11.8z"/>
	</g>
	<g id="Контур_35">
		<path class="st1" d="M24,29c-1.2,0-2.4-0.2-3.5-0.7c-1-0.5-1.9-1.2-2.5-2.2c-0.6-1.1-0.9-2.4-0.9-3.7c0-1.2,0.3-2.4,0.9-3.5
			c0.6-1.1,1.5-1.9,2.6-2.5c1.3-0.7,2.7-1,4.1-0.9h0.3h0.6v-5c0-0.1,0-0.2,0.2-0.2H29c0.1,0,0.1,0,0.2,0.1c0,0,0,0,0,0v15.5
			c0,0.3,0,0.6,0,1s0,0.7,0.1,1c0,0.1,0,0.2-0.1,0.3c-0.8,0.4-1.7,0.6-2.5,0.8C25.7,29,24.8,29,24,29z M25.8,25.7v-7.2
			c-0.2,0-0.4-0.1-0.6-0.1c-0.2,0-0.4,0-0.5,0c-0.6,0-1.3,0.1-1.9,0.4c-1.3,0.6-2,1.9-1.9,3.3c0,0.6,0.1,1.1,0.3,1.7
			c0.2,0.4,0.4,0.8,0.8,1.1c0.3,0.3,0.7,0.5,1.1,0.7c0.4,0.1,0.9,0.2,1.4,0.2c0.2,0,0.5,0,0.7,0C25.3,25.9,25.5,25.8,25.8,25.7
			L25.8,25.7z"/>
	</g>
</g>
</svg>
