<svg id="_04-slide" data-name="04-slide" xmlns="http://www.w3.org/2000/svg" viewBox="0 0 40 40"><defs><style>.cls-1{fill:#00e174;}</style></defs><g id="InDesign"><g id="Прямоугольник_18" data-name="Прямоугольник 18"><path class="cls-1" d="M33.75,1.5A4.75,4.75,0,0,1,38.5,6.25v27.5a4.75,4.75,0,0,1-4.75,4.75H6.25A4.75,4.75,0,0,1,1.5,33.75V6.25A4.75,4.75,0,0,1,6.25,1.5h27.5m0-1.5H6.25A6.25,6.25,0,0,0,0,6.25v27.5A6.25,6.25,0,0,0,6.25,40h27.5A6.25,6.25,0,0,0,40,33.75V6.25A6.25,6.25,0,0,0,33.75,0Z"/></g><g id="Контур_34" data-name="Контур 34"><path class="cls-1" d="M14.21,11.83V28.4c0,.17-.08.26-.24.26H11c-.14,0-.21-.09-.21-.26V11.83c0-.14.07-.21.23-.21h3a.2.2,0,0,1,.21.16v.05Z"/></g><g id="Контур_35" data-name="Контур 35"><path class="cls-1" d="M24,29a8.14,8.14,0,0,1-3.53-.74A5.61,5.61,0,0,1,18,26.05a7.18,7.18,0,0,1-.89-3.74A6.8,6.8,0,0,1,18,18.84a6.64,6.64,0,0,1,2.62-2.53,8.33,8.33,0,0,1,4.15-.95h.34l.65,0v-5c0-.13,0-.19.16-.19H29a.14.14,0,0,1,.16.12V25.8c0,.3,0,.62,0,1s.05.67.06.95a.27.27,0,0,1-.15.27,12,12,0,0,1-2.55.79A13.57,13.57,0,0,1,24,29Zm1.76-3.28V18.53a3.85,3.85,0,0,0-.58-.08,4.89,4.89,0,0,0-.54,0,4.18,4.18,0,0,0-1.85.42,3.42,3.42,0,0,0-1.93,3.31,4.64,4.64,0,0,0,.27,1.69A3.29,3.29,0,0,0,21.89,25a2.81,2.81,0,0,0,1.11.66,4,4,0,0,0,1.37.21c.24,0,.47,0,.68,0a4.43,4.43,0,0,0,.73-.11Z"/></g></g></svg>