<?xml version="1.0" encoding="utf-8"?>
<!-- Generator: Adobe Illustrator 25.4.1, SVG Export Plug-In . SVG Version: 6.00 Build 0)  -->
<svg version="1.1" id="_04-slide" xmlns="http://www.w3.org/2000/svg" xmlns:xlink="http://www.w3.org/1999/xlink" x="0px" y="0px"
	 viewBox="0 0 40 40" style="enable-background:new 0 0 40 40;" xml:space="preserve">
<style type="text/css">
	.st0{fill:url(#Прямоугольник_3_00000110430728287644871340000003027905158061689765_);}
	.st1{fill:#19171C;}
</style>
<g>
	
		<linearGradient id="Прямоугольник_3_00000114763827831327932920000013396832786224056246_" gradientUnits="userSpaceOnUse" x1="20" y1="40" x2="20" y2="-9.094947e-13">
		<stop  offset="2.237672e-07" style="stop-color:#158DA6"/>
		<stop  offset="1" style="stop-color:#27C5D1"/>
	</linearGradient>
	
		<path id="Прямоугольник_3_00000161629737317090138130000007825278309911336596_" style="fill:url(#Прямоугольник_3_00000114763827831327932920000013396832786224056246_);" d="
		M6.2,0h27.5C37.2,0,40,2.8,40,6.2v27.5c0,3.5-2.8,6.2-6.2,6.2H6.2C2.8,40,0,37.2,0,33.8V6.2C0,2.8,2.8,0,6.2,0z"/>
	<path class="st1" d="M24.5,21.9h5.2c-0.9,4.6-5,7.8-10.3,7.8h-4.3v4.1h-5v-12h5v2.8h4.3C21.4,24.7,23.6,23.8,24.5,21.9z M24.9,6.1
		v4.6c-1.4-0.8-3.1-1.3-4.9-1.3c-5.3,0-9.4,4-9.9,9.4h5c0.4-2.3,2-4.4,4.8-4.4c2.8,0,4.4,2.1,4.8,4.4h5.1V6.1H24.9z"/>
</g>
</svg>
