<?xml version="1.0" encoding="utf-8"?>
<!-- Generator: Adobe Illustrator 25.4.1, SVG Export Plug-In . SVG Version: 6.00 Build 0)  -->
<svg version="1.1" id="_04-slide" xmlns="http://www.w3.org/2000/svg" xmlns:xlink="http://www.w3.org/1999/xlink" x="0px" y="0px"
	 viewBox="0 0 40 40" style="enable-background:new 0 0 40 40;" xml:space="preserve">
<style type="text/css">
	.st0{fill:#02012B;}
	.st1{fill:#47BEC7;}
</style>
<rect class="st0" width="40" height="40"/>
<g id="Premiere">
	<g id="Прямоугольник_26">
		<path class="st1" d="M33.8,1.5c2.6,0,4.8,2.1,4.8,4.8v27.5c0,2.6-2.1,4.8-4.8,4.8H6.2c-2.6,0-4.8-2.1-4.8-4.8V6.2
			c0-2.6,2.1-4.8,4.8-4.8H33.8 M33.8,0H6.2C2.8,0,0,2.8,0,6.2v27.5C0,37.2,2.8,40,6.2,40h27.5c3.5,0,6.2-2.8,6.2-6.2V6.2
			C40,2.8,37.2,0,33.8,0z"/>
	</g>
	<g id="Контур_52">
		<path class="st1" d="M9.4,28.3V11.4c0-0.1,0.1-0.2,0.1-0.2h3.7c0.5,0,1.1,0.1,1.6,0.1c1.1,0,2.3,0.2,3.4,0.5
			c1.6,0.5,2.8,1.7,3.4,3.2c0.2,0.7,0.3,1.4,0.4,2.1c0,1.2-0.3,2.5-1,3.5c-0.6,0.9-1.6,1.6-2.6,2c-1.2,0.4-2.4,0.6-3.7,0.6h-0.8
			c-0.1,0-0.8-0.1-1.1-0.1v5.2c0,0.1-0.1,0.2-0.2,0.2H9.6C9.5,28.5,9.4,28.5,9.4,28.3z M12.9,14.4v5.5c0.2,0,0.9,0.1,1.1,0.1h0.9
			c0.6,0,1.3-0.1,1.9-0.3c0.5-0.1,1-0.4,1.4-0.9c0.4-0.5,0.6-1.1,0.5-1.7c0-0.5-0.1-1-0.4-1.4c-0.3-0.4-0.7-0.7-1.1-0.9
			c-0.6-0.2-1.3-0.3-1.9-0.4h-1.1C13.6,14.5,13.2,14.5,12.9,14.4z"/>
	</g>
	<g id="Контур_53">
		<path class="st1" d="M24.4,15.5h2.9c0.2,0,0.3,0.1,0.4,0.3c0.1,0.1,0.1,0.2,0.1,0.4c0.1,0.2,0.1,0.3,0.1,0.5v0.6
			c0.5-0.6,1.1-1.1,1.8-1.4c0.7-0.4,1.5-0.6,2.3-0.6c0.1,0,0.2,0.1,0.2,0.1v3.3c0,0.1-0.1,0.2-0.3,0.2c-0.5-0.1-1.1,0-1.6,0.1
			c-0.5,0.1-0.9,0.2-1.4,0.4c-0.4,0.1-0.8,0.4-1.1,0.6v8.4c0,0.1-0.1,0.2-0.2,0.2h-3.1c-0.1,0-0.2-0.1-0.3-0.2V18.1
			c0-0.4,0-0.9-0.1-1.3c0-0.4-0.1-0.7-0.1-1.1c0-0.1,0-0.1,0.1-0.1S24.3,15.5,24.4,15.5z"/>
	</g>
</g>
</svg>
