<svg id="_04-slide" data-name="04-slide" xmlns="http://www.w3.org/2000/svg" viewBox="0 0 40 40"><defs><style>.cls-1{fill:#00e174;}</style></defs><g id="Premiere"><g id="Прямоугольник_26" data-name="Прямоугольник 26"><path class="cls-1" d="M33.75,1.5A4.75,4.75,0,0,1,38.5,6.25v27.5a4.75,4.75,0,0,1-4.75,4.75H6.25A4.75,4.75,0,0,1,1.5,33.75V6.25A4.75,4.75,0,0,1,6.25,1.5h27.5m0-1.5H6.25A6.25,6.25,0,0,0,0,6.25v27.5A6.25,6.25,0,0,0,6.25,40h27.5A6.25,6.25,0,0,0,40,33.75V6.25A6.25,6.25,0,0,0,33.75,0Z"/></g><g id="Контур_52" data-name="Контур 52"><path class="cls-1" d="M9.43,28.31V11.45c0-.14.07-.21.15-.21h3.71c.5,0,1.14.14,1.64.14a11,11,0,0,1,3.36.5,5.54,5.54,0,0,1,3.43,3.22,7.74,7.74,0,0,1,.36,2.14,5.82,5.82,0,0,1-1,3.5,5.34,5.34,0,0,1-2.65,2,10.93,10.93,0,0,1-3.71.64h-.79c-.14,0-.78-.14-1.14-.14v5.21a.2.2,0,0,1-.16.22H9.58C9.5,28.52,9.43,28.45,9.43,28.31Zm3.43-13.93v5.5c.22,0,.86.14,1.07.14h.86a5.35,5.35,0,0,0,1.86-.28A2.74,2.74,0,0,0,18,18.88a2.41,2.41,0,0,0,.5-1.71,3.21,3.21,0,0,0-.35-1.43A2.44,2.44,0,0,0,17,14.81a6.33,6.33,0,0,0-1.92-.36H13.93A3.83,3.83,0,0,1,12.86,14.38Z"/></g><g id="Контур_53" data-name="Контур 53"><path class="cls-1" d="M24.36,15.52h2.86a.5.5,0,0,1,.36.29c.07.14.14.21.14.36a1.21,1.21,0,0,1,.07.5v.57a5.77,5.77,0,0,1,1.79-1.43,3.74,3.74,0,0,1,2.28-.57c.14,0,.22.07.22.14v3.29c0,.14-.08.21-.29.21a4,4,0,0,0-1.57.14,4.69,4.69,0,0,0-1.36.43,3.45,3.45,0,0,0-1.07.65v8.35a.2.2,0,0,1-.16.22H24.58c-.15,0-.22-.07-.29-.22V18.1a8,8,0,0,0-.07-1.29c0-.36-.07-.71-.07-1.07,0-.07,0-.07.07-.14S24.29,15.52,24.36,15.52Z"/></g></g></svg>