<?xml version="1.0" encoding="utf-8"?>
<!-- Generator: Adobe Illustrator 25.4.1, SVG Export Plug-In . SVG Version: 6.00 Build 0)  -->
<svg version="1.1" id="_04-slide" xmlns="http://www.w3.org/2000/svg" xmlns:xlink="http://www.w3.org/1999/xlink" x="0px" y="0px"
	 viewBox="0 0 40 40" style="enable-background:new 0 0 40 40;" xml:space="preserve">
<style type="text/css">
	.st0{fill:#02012B;}
	.st1{fill:#47BEC7;}
</style>
<rect class="st0" width="40" height="40"/>
<g id="Photoshop">
	<g id="Прямоугольник_22">
		<path class="st1" d="M33.8,1.5c2.6,0,4.8,2.1,4.8,4.8v27.5c0,2.6-2.1,4.8-4.8,4.8H6.2c-2.6,0-4.8-2.1-4.8-4.8V6.2
			c0-2.6,2.1-4.8,4.8-4.8H33.8 M33.8,0H6.2C2.8,0,0,2.8,0,6.2v27.5C0,37.2,2.8,40,6.2,40h27.5c3.5,0,6.2-2.8,6.2-6.2V6.2
			C40,2.8,37.2,0,33.8,0z"/>
	</g>
	<g id="Контур_44">
		<path class="st1" d="M8.9,28.4V11.5c0-0.1,0.1-0.2,0.2-0.2h1h1.3h1.4h1.5c1.1,0,2.3,0.1,3.4,0.5c0.8,0.3,1.6,0.7,2.2,1.4
			c0.5,0.5,0.9,1.1,1.2,1.8c0.2,0.7,0.4,1.4,0.4,2.1c0,1.2-0.3,2.5-1,3.5c-0.7,0.9-1.6,1.6-2.6,2c-1.2,0.4-2.4,0.6-3.7,0.6h-1.5v5.2
			c0,0.1,0,0.2-0.2,0.2c0,0,0,0,0,0H9.1C9,28.6,8.9,28.6,8.9,28.4z M12.6,14.5V20h0.6h0.9c0.6,0,1.3-0.1,1.9-0.2
			c0.5-0.2,1-0.5,1.4-0.9c0.4-0.5,0.6-1.1,0.5-1.7c0-0.5-0.1-1-0.4-1.4c-0.3-0.4-0.7-0.8-1.1-0.9c-0.6-0.2-1.3-0.4-1.9-0.3h-1.2
			C13,14.5,12.8,14.5,12.6,14.5z"/>
	</g>
	<g id="Контур_45">
		<path class="st1" d="M31.7,18.9c-0.6-0.3-1.3-0.4-1.9-0.5c-0.6-0.1-1.2-0.2-1.8-0.2c-0.3,0-0.7,0-1,0.1c-0.2,0-0.4,0.2-0.5,0.3
			c-0.1,0.1-0.1,0.3-0.1,0.4c0,0.2,0.1,0.3,0.2,0.4c0.2,0.2,0.3,0.3,0.5,0.4c0.4,0.2,0.8,0.4,1.2,0.5c0.9,0.3,1.7,0.7,2.5,1.2
			c0.5,0.3,0.9,0.8,1.2,1.3c0.3,0.5,0.4,1.1,0.4,1.7c0,0.8-0.2,1.5-0.6,2.2c-0.4,0.7-1,1.2-1.7,1.5c-1,0.4-2,0.6-3,0.5
			c-0.7,0-1.5-0.1-2.2-0.2c-0.6-0.1-1.2-0.3-1.8-0.5c-0.1-0.1-0.2-0.2-0.2-0.3V25c0-0.1,0-0.1,0.1-0.1c0,0,0.1,0,0.1,0
			c0.7,0.4,1.4,0.7,2.1,0.8c0.6,0.2,1.3,0.2,1.9,0.2c0.5,0,0.9-0.1,1.4-0.2c0.3-0.1,0.4-0.4,0.4-0.7c0-0.3-0.2-0.5-0.4-0.7
			c-0.5-0.3-1-0.6-1.6-0.8c-0.8-0.3-1.6-0.7-2.3-1.2c-0.5-0.3-1-0.8-1.3-1.4c-0.3-0.5-0.4-1.1-0.4-1.7c0-0.7,0.2-1.4,0.6-2
			c0.4-0.7,1-1.2,1.7-1.5c0.8-0.4,1.7-0.7,2.7-0.7c0.7,0,1.5,0,2.2,0c0.6,0.1,1.2,0.3,1.8,0.6c0.1,0,0.1,0.1,0.2,0.1
			c0,0.1,0,0.1,0,0.2v2.7c0,0.1,0,0.1-0.1,0.2C31.8,18.9,31.8,18.9,31.7,18.9L31.7,18.9z"/>
	</g>
</g>
</svg>
