<svg id="_04-slide" data-name="04-slide" xmlns="http://www.w3.org/2000/svg" viewBox="0 0 40 40"><defs><style>.cls-1{fill:#470137;}.cls-2{fill:#ff61f6;}</style></defs><g id="XD"><rect id="Прямоугольник_29" data-name="Прямоугольник 29" class="cls-1" width="40" height="40" rx="6.25"/><path id="Контур_58" data-name="Контур 58" class="cls-2" d="M21.21,11.87l-4.92,7.91,5.26,8.57a.32.32,0,0,1,0,.19c0,.07-.08.11-.19.12H17.64a.59.59,0,0,1-.56-.26c-.35-.69-.7-1.32-1-2S15.3,25,14.9,24.33s-.79-1.42-1.17-2.14h0c-.35.7-.72,1.41-1.1,2.11s-.75,1.41-1.12,2.1-.75,1.34-1.14,2a.36.36,0,0,1-.37.23H6.35a.1.1,0,0,1-.12-.09h0a.31.31,0,0,1,0-.19l5.11-8.32-5-8.21c-.06-.07-.07-.12,0-.17a.19.19,0,0,1,.16-.06h3.72a.47.47,0,0,1,.24,0,.36.36,0,0,1,.16.14c.32.71.67,1.21,1.06,1.91s.78,1.4,1.17,2.09.77,1.38,1.1,2.09h0c.35-.72.71-1.43,1.07-2.11s.73-1.38,1.11-2.08.74-1.19,1.09-1.87a.34.34,0,0,1,.11-.17.32.32,0,0,1,.21,0h3.46a.15.15,0,0,1,.19.11A.17.17,0,0,1,21.21,11.87Z"/><path id="Контур_59" data-name="Контур 59" class="cls-2" d="M28.52,29.22A8.07,8.07,0,0,1,25,28.48a5.53,5.53,0,0,1-2.48-2.23,7.27,7.27,0,0,1-.9-3.74,7,7,0,0,1,.9-3.46,6.66,6.66,0,0,1,2.62-2.54,8.55,8.55,0,0,1,4.15-1h.34l.64,0V10.94a.43.43,0,0,1,.36-.48h2.55a.47.47,0,0,1,.48.48V26c0,.3,0,.63,0,1s0,.67.07.95a.32.32,0,0,1,0,.16.29.29,0,0,1-.12.1,12,12,0,0,1-2.55.8A14.45,14.45,0,0,1,28.52,29.22ZM30.21,26V18.73a4.5,4.5,0,0,0-.51-.08,4.89,4.89,0,0,0-.54,0,4.06,4.06,0,0,0-1.85.43,3.39,3.39,0,0,0-1.93,3.3A4.61,4.61,0,0,0,25.65,24a3.33,3.33,0,0,0,.74,1.17,3.06,3.06,0,0,0,1.11.66,4.51,4.51,0,0,0,1.37.21c.24,0,.47,0,.68,0A3.76,3.76,0,0,0,30.21,26Z"/></g></svg>