<?xml version="1.0" encoding="utf-8"?>
<!-- Generator: Adobe Illustrator 25.4.1, SVG Export Plug-In . SVG Version: 6.00 Build 0)  -->
<svg version="1.1" id="_04-slide" xmlns="http://www.w3.org/2000/svg" xmlns:xlink="http://www.w3.org/1999/xlink" x="0px" y="0px"
	 viewBox="0 0 40 40" style="enable-background:new 0 0 40 40;" xml:space="preserve">
<style type="text/css">
	.st0{fill:#02012B;}
	.st1{fill:#47BEC7;}
</style>
<rect class="st0" width="40" height="40"/>
<g id="XD">
	<g id="Прямоугольник_29">
		<path class="st1" d="M33.8,1.5c2.6,0,4.8,2.1,4.8,4.8v27.5c0,2.6-2.1,4.8-4.8,4.8H6.2c-2.6,0-4.8-2.1-4.8-4.8V6.2
			c0-2.6,2.1-4.8,4.8-4.8H33.8 M33.8,0H6.2C2.8,0,0,2.8,0,6.2v27.5C0,37.2,2.8,40,6.2,40h27.5c3.5,0,6.2-2.8,6.2-6.2V6.2
			C40,2.8,37.2,0,33.8,0z"/>
	</g>
	<g id="Контур_58">
		<path class="st1" d="M21.2,11.9l-4.9,7.9l5.3,8.6c0,0.1,0,0.1,0,0.2c0,0.1-0.1,0.1-0.2,0.1h-3.7c-0.2,0-0.4-0.1-0.6-0.3
			c-0.4-0.7-0.7-1.3-1-2s-0.8-1.4-1.2-2.1s-0.8-1.4-1.2-2.1l0,0c-0.4,0.7-0.7,1.4-1.1,2.1s-0.8,1.4-1.1,2.1s-0.8,1.3-1.1,2
			c-0.1,0.2-0.2,0.2-0.4,0.2H6.3c-0.1,0-0.1,0-0.1-0.1l0,0c0-0.1,0-0.1,0-0.2l5.1-8.3l-5-8.2c-0.1-0.1-0.1-0.1,0-0.2
			c0,0,0.1-0.1,0.2-0.1h3.7c0.1,0,0.2,0,0.2,0c0.1,0,0.1,0.1,0.2,0.1c0.3,0.7,0.7,1.2,1.1,1.9s0.8,1.4,1.2,2.1
			c0.4,0.7,0.8,1.4,1.1,2.1l0,0c0.4-0.7,0.7-1.4,1.1-2.1s0.7-1.4,1.1-2.1s0.7-1.2,1.1-1.9c0-0.1,0.1-0.1,0.1-0.2c0.1,0,0.1,0,0.2,0
			H21c0.1,0,0.2,0,0.2,0.1c0,0,0,0,0,0C21.2,11.7,21.2,11.8,21.2,11.9z"/>
	</g>
	<g id="Контур_59">
		<path class="st1" d="M28.5,29.2c-1.2,0-2.4-0.2-3.5-0.7c-1-0.5-1.9-1.2-2.5-2.2c-0.6-1.1-0.9-2.4-0.9-3.7c0-1.2,0.3-2.4,0.9-3.5
			c0.6-1.1,1.5-2,2.6-2.5c1.3-0.7,2.7-1,4.1-1h0.3h0.6v-4.6c0-0.2,0.1-0.4,0.4-0.5h2.6c0.3,0,0.5,0.2,0.5,0.5c0,0,0,0,0,0V26
			c0,0.3,0,0.6,0,1s0,0.7,0.1,1c0,0.1,0,0.1,0,0.2c0,0-0.1,0.1-0.1,0.1c-0.8,0.4-1.7,0.6-2.5,0.8C30.2,29.2,29.4,29.2,28.5,29.2z
			 M30.2,26v-7.3c-0.2,0-0.3-0.1-0.5-0.1c-0.2,0-0.4,0-0.5,0c-0.6,0-1.3,0.1-1.9,0.4c-1.3,0.6-2,1.9-1.9,3.3c0,0.6,0.1,1.1,0.3,1.6
			c0.2,0.4,0.4,0.8,0.7,1.2c0.3,0.3,0.7,0.5,1.1,0.7c0.4,0.1,0.9,0.2,1.4,0.2c0.2,0,0.5,0,0.7,0C29.8,26,30,26,30.2,26z"/>
	</g>
</g>
</svg>
