<svg id="_04-slide" data-name="04-slide" xmlns="http://www.w3.org/2000/svg" viewBox="0 0 40 40"><defs><style>.cls-1{fill:#00e174;}</style></defs><g id="XD"><g id="Прямоугольник_29" data-name="Прямоугольник 29"><path class="cls-1" d="M33.75,1.5A4.75,4.75,0,0,1,38.5,6.25v27.5a4.75,4.75,0,0,1-4.75,4.75H6.25A4.75,4.75,0,0,1,1.5,33.75V6.25A4.75,4.75,0,0,1,6.25,1.5h27.5m0-1.5H6.25A6.25,6.25,0,0,0,0,6.25v27.5A6.25,6.25,0,0,0,6.25,40h27.5A6.25,6.25,0,0,0,40,33.75V6.25A6.25,6.25,0,0,0,33.75,0Z"/></g><g id="Контур_58" data-name="Контур 58"><path class="cls-1" d="M21.21,11.87l-4.92,7.91,5.26,8.57a.32.32,0,0,1,0,.19c0,.07-.08.11-.19.12H17.64a.59.59,0,0,1-.56-.26c-.35-.69-.7-1.32-1-2S15.3,25,14.9,24.33s-.79-1.42-1.17-2.14h0c-.35.7-.72,1.41-1.1,2.11s-.75,1.41-1.12,2.1-.75,1.34-1.14,2a.38.38,0,0,1-.37.24H6.35a.12.12,0,0,1-.12-.1h0a.33.33,0,0,1,0-.19l5.11-8.32-5-8.21c-.06-.07-.07-.12,0-.17a.19.19,0,0,1,.16-.06h3.72a.47.47,0,0,1,.24,0,.36.36,0,0,1,.16.14c.32.71.67,1.21,1.06,1.91s.78,1.4,1.17,2.09.77,1.38,1.1,2.09h0c.35-.72.71-1.43,1.07-2.11s.73-1.38,1.11-2.08.74-1.19,1.09-1.87a.34.34,0,0,1,.11-.17.32.32,0,0,1,.21,0h3.46a.15.15,0,0,1,.19.11A.17.17,0,0,1,21.21,11.87Z"/></g><g id="Контур_59" data-name="Контур 59"><path class="cls-1" d="M28.52,29.22A8.07,8.07,0,0,1,25,28.48a5.53,5.53,0,0,1-2.48-2.23,7.16,7.16,0,0,1-.89-3.74,6.86,6.86,0,0,1,.89-3.46,6.66,6.66,0,0,1,2.62-2.54,8.55,8.55,0,0,1,4.15-1h.34l.64,0V10.94a.43.43,0,0,1,.36-.48h2.56a.47.47,0,0,1,.47.48V26c0,.3,0,.63,0,1s0,.67.07.95a.32.32,0,0,1,0,.16.29.29,0,0,1-.12.1,12,12,0,0,1-2.55.8A14.45,14.45,0,0,1,28.52,29.22ZM30.21,26V18.73a4.5,4.5,0,0,0-.51-.08,3.25,3.25,0,0,0-.54,0,3.92,3.92,0,0,0-1.85.42,3.39,3.39,0,0,0-1.93,3.3A4.61,4.61,0,0,0,25.65,24a3.33,3.33,0,0,0,.74,1.17,2.93,2.93,0,0,0,1.11.66,4.51,4.51,0,0,0,1.37.21c.24,0,.47,0,.68,0A3.76,3.76,0,0,0,30.21,26Z"/></g></g></svg>