<?xml version="1.0" encoding="utf-8"?>
<!-- Generator: Adobe Illustrator 24.3.0, SVG Export Plug-In . SVG Version: 6.00 Build 0)  -->
<svg version="1.1" id="Layer_1" xmlns="http://www.w3.org/2000/svg" xmlns:xlink="http://www.w3.org/1999/xlink" x="0px" y="0px"
	 viewBox="0 0 340 340" style="enable-background:new 0 0 340 340;" xml:space="preserve">
<style type="text/css">
	.st0{clip-path:url(#SVGID_2_);}
</style>
<g>
	<defs>
		<circle id="SVGID_1_" cx="170" cy="170" r="170"/>
	</defs>
	<clipPath id="SVGID_2_">
		<use xlink:href="#SVGID_1_"  style="overflow:visible;"/>
	</clipPath>
	<path class="st0" d="M204.75,257.75c-8.5-3.38-16-13.12-24.25-13.12s-13.75,5.12-13.75,5.12s-5.5-5.12-13.75-5.12
		s-15.75,9.75-24.25,13.12s-22.25,9.38-28.62-1.25c1.5,7.25,7.33,16.98,19,19.5c12.75,2.75,32.38-0.75,47.62-11
		c15.25,10.25,34.88,13.75,47.62,11c11.67-2.52,17.5-12.25,19-19.5C227,267.12,213.25,261.12,204.75,257.75z"/>
	<path class="st0" d="M186.99,286.3c-4.52,3.74-20.24,2.41-20.24,2.41s-15.72,1.33-20.24-2.41c-2.95,4.04,6.23,24.29,20.24,29.82
		C180.76,310.59,189.95,290.35,186.99,286.3z M166.75,302.34c-1.46,0-2.64-1.19-2.64-2.65c0-1.46,1.19-2.64,2.64-2.64
		s2.64,1.19,2.64,2.64C169.39,301.15,168.21,302.34,166.75,302.34z"/>
	<path class="st0" d="M147.86,235.2c-0.79,1.51-2.36,2.55-4.18,2.55c-2.61,0-4.73-2.12-4.73-4.73c0-0.37,0.05-0.72,0.13-1.06
		c0.08,0.01,0.17,0.03,0.25,0.03c0.98,0,1.78-0.8,1.78-1.78c0-0.35-0.1-0.67-0.27-0.94c0.79-0.6,1.77-0.97,2.84-0.97
		c0.03,0,0.06,0.01,0.08,0.01l0.31-0.88c-0.13-0.01-0.26-0.02-0.39-0.02c-1.33,0-2.55,0.47-3.52,1.24
		c-0.25-0.13-0.53-0.22-0.83-0.22c-0.98,0-1.78,0.8-1.78,1.78c0,0.57,0.27,1.08,0.69,1.4c-0.12,0.45-0.19,0.93-0.19,1.42
		c0,3.1,2.52,5.63,5.63,5.63c2.25,0,4.19-1.33,5.09-3.25L147.86,235.2z"/>
	<path class="st0" d="M221.05,37.65c-0.1-0.05-0.2-0.1-0.3-0.15c-1.05-0.55-2.07-1.04-3.05-1.47c-0.87-0.4-1.71-0.75-2.53-1.07
		c-1.14-0.45-2.22-0.82-3.26-1.14c-9.36-2.87-15.06-1.15-20.91-2.32c-7.5-1.5-30.25-11-47.25-7.5S101,43.75,94.5,52.75
		S79.5,70.5,77.75,72s-9.5,28.75-7.25,41s8.25,41,10.75,43.25c5.5-4.75,8.75-15.25,13-15s27.75,5,39-8.25s13.5-21.25,14-23.75
		s14.25-11,19-16.75c2.4-2.91,7.8-13.28,13.78-23.52l0,0l0,0c0.25-0.42,0.49-0.84,0.74-1.26c-0.03,0.3-0.09,0.6-0.16,0.91
		c0.48-0.28,1.24-0.69,2.16-1.13c0.05-0.92-0.04-1.8-0.29-2.64c0,0,0-0.01,0.01-0.01c0.25-0.41,0.49-0.81,0.74-1.2
		c0.52,0.96,0.86,2.04,0.93,3.24c0.61-0.25,1.26-0.49,1.93-0.7c-0.21-1.64-0.82-3.12-1.69-4.41c0.2-0.33,0.41-0.66,0.62-0.98
		c1.12,1.41,2.03,3.09,2.39,5.02c0.62-0.15,1.26-0.3,1.94-0.42c-0.49-2.47-1.75-4.58-3.23-6.31c0,0,0,0,0,0
		c0.22-0.32,0.43-0.64,0.65-0.96c1.67,1.89,3.23,4.28,3.87,7.05c0.65-0.09,1.32-0.17,2.01-0.23c-0.74-3.42-2.7-6.32-4.72-8.51
		c0,0,0,0,0,0c0.24-0.35,0.48-0.7,0.73-1.04c0,0,0,0,0,0c2.15,2.35,4.47,5.63,5.34,9.46c0.67-0.03,1.36-0.05,2.06-0.04
		c-0.9-4.61-3.68-8.45-6.18-11.09l0,0c0.26-0.36,0.53-0.71,0.8-1.05c2.52,2.76,5.7,7.1,6.72,12.18c0.69,0.04,1.4,0.1,2.12,0.18
		c-0.98-5.96-4.71-10.93-7.55-13.96c0,0,0,0,0,0c0.31-0.37,0.61-0.72,0.92-1.05c2.76,3.08,6.96,8.69,8.01,15.2
		c0.7,0.11,1.41,0.24,2.12,0.41c-0.91-7.43-5.66-13.71-8.71-17.06c0,0,0,0,0,0c0.37-0.36,0.74-0.68,1.09-0.96l0,0
		c2.91,3.36,8.13,10.38,9.03,18.38c0.7,0.19,1.4,0.41,2.1,0.66c-0.62-8.82-6.21-16.46-9.45-20.19l0,0c0.44-0.25,0.9-0.48,1.37-0.7
		c3.14,3.85,8.99,12.21,9.49,21.42c0.55,0.22,1.1,0.46,1.66,0.73c0.14,0.06,0.27,0.13,0.41,0.2c-0.08-9.89-6.09-18.78-9.61-23.15
		l0,0c0.49-0.19,1-0.37,1.5-0.52c3.49,4.63,9.61,14.21,9.49,24.35c0.67,0.34,1.33,0.69,2,1.05c0.58-10.74-5.54-20.78-9.39-25.98
		c0.52-0.13,1.05-0.25,1.59-0.35c0,0,0,0,0,0c3.85,5.55,9.96,16.22,9.15,27.07c0.65,0.37,1.29,0.75,1.92,1.14
		c1.31-11.38-4.67-22.41-8.83-28.55c0.56-0.07,1.12-0.12,1.67-0.16c4.17,6.56,10.05,18.14,8.47,29.52c0.63,0.4,1.24,0.81,1.84,1.23
		c2.09-11.82-3.53-23.7-7.95-30.82c0,0,0,0,0,0c0.59,0.01,1.17,0.03,1.75,0.07c4.4,7.6,9.83,19.93,7.46,31.64
		c0.6,0.44,1.19,0.89,1.76,1.34c2.91-12.06-2.14-24.57-6.68-32.69c0.62,0.09,1.23,0.22,1.84,0.37c4.5,8.61,9.26,21.45,6.04,33.29
		c0.57,0.48,1.12,0.98,1.66,1.48c3.72-12.03-0.47-24.87-4.95-33.92c0.69,0.27,1.36,0.58,2,0.93c4.33,9.49,8.06,22.43,4.04,34.04
		c0.54,0.54,1.04,1.09,1.53,1.65c4.38-11.33,1.66-23.7-2.29-33.39c1.2,1.12,2.22,2.44,3.01,4c6.11,12.12,3.26,26.22,0.76,31.23
		c0.66,0.91,1.25,1.83,1.74,2.77C231.5,85.75,251.37,52.72,221.05,37.65z"/>
	<g class="st0">
		<path d="M236.99,79.65l-4.94,6.79c0.36,0.49,0.7,0.98,1.03,1.47l4.32-7.55C237.14,79.9,236.99,79.65,236.99,79.65z"/>
		<path d="M237.73,80.93l-4.52,7.17c0.4,0.59,0.77,1.17,1.14,1.76l4.43-7.03C238.37,82.06,238.02,81.43,237.73,80.93z"/>
		<path d="M239.19,83.58l-4.63,6.62c0.37,0.6,0.73,1.21,1.07,1.81l4.56-6.53C239.84,84.8,239.5,84.16,239.19,83.58z"/>
		<path d="M240.67,86.43l-4.75,6.1c0.34,0.63,0.67,1.25,0.98,1.87l4.72-6.06C241.29,87.67,240.98,87.03,240.67,86.43z"/>
		<path d="M242.18,89.48l-4.92,5.62c0.31,0.64,0.6,1.28,0.88,1.92l4.94-5.63C242.77,90.73,242.47,90.1,242.18,89.48z"/>
		<path d="M243.69,92.74l-5.16,5.18c0.28,0.66,0.53,1.32,0.78,1.97l5.22-5.24C244.24,93.99,243.96,93.36,243.69,92.74z"/>
		<path d="M245.19,96.21l-5.49,4.78c0.24,0.68,0.46,1.35,0.66,2.01l5.6-4.88C245.71,97.47,245.45,96.83,245.19,96.21z"/>
		<path d="M246.67,99.89l-5.91,4.4c0.2,0.69,0.38,1.38,0.54,2.04l6.09-4.53C247.15,101.16,246.91,100.52,246.67,99.89z"/>
		<path d="M248.08,103.77l-6.45,4.01c0.16,0.71,0.29,1.4,0.42,2.07l6.68-4.15C248.52,105.05,248.3,104.41,248.08,103.77z"/>
		<path d="M249.41,107.86l-7.1,3.57c0.11,0.73,0.21,1.42,0.28,2.09l7.38-3.71C249.79,109.15,249.61,108.5,249.41,107.86z"/>
		<path d="M250.59,112.12l-7.82,3.03c0.07,0.75,0.12,1.45,0.16,2.09l8.14-3.16C250.91,113.42,250.76,112.77,250.59,112.12z"/>
		<path d="M251.58,116.51l-8.57,2.38c0.03,0.9,0.05,1.6,0.08,2.07l8.86-2.46C251.83,117.84,251.71,117.17,251.58,116.51z"/>
		<path d="M252.3,120.98l-9.33,1.59c-0.13,0.68-0.35,1.39-0.59,2.15l10.15-1.73C252.47,122.32,252.39,121.65,252.3,120.98z"/>
		<path d="M252.76,125.45l-10.81,0.72c-0.19,0.66-0.35,1.34-0.46,2.06l11.4-0.76C252.85,126.8,252.81,126.13,252.76,125.45z"/>
		<path d="M252.99,129.84l-11.62-0.38c-0.02,0.65,0.02,1.33,0.15,2.03l11.52,0.38C253.03,131.2,253.01,130.52,252.99,129.84z"/>
		<path d="M253.05,134.1l-11.23-1.46c0.08,0.23,0.15,0.46,0.25,0.7c0.17,0.41,0.33,0.89,0.49,1.43l10.46,1.36
			C253.04,135.46,253.05,134.78,253.05,134.1z"/>
		<path d="M252.98,138.18l-10.1-2.26c0.17,0.67,0.33,1.4,0.49,2.18l9.53,2.13C252.93,139.56,252.96,138.87,252.98,138.18z"/>
		<path d="M252.81,142.08l-9.22-2.9c0.14,0.72,0.27,1.47,0.39,2.23l8.7,2.73C252.73,143.47,252.77,142.78,252.81,142.08z"/>
		<path d="M252.56,145.78l-8.42-3.39c0.12,0.76,0.23,1.53,0.34,2.3l7.9,3.18C252.45,147.19,252.5,146.49,252.56,145.78z"/>
		<path d="M252.25,149.29l-7.65-3.73c0.11,0.8,0.21,1.59,0.31,2.37l7.12,3.48C252.11,150.71,252.18,150.01,252.25,149.29z"/>
		<path d="M251.91,152.59l-6.9-3.94c0.1,0.85,0.2,1.67,0.29,2.45l6.36,3.63C251.74,154.05,251.82,153.33,251.91,152.59z"/>
		<path d="M251.53,155.71l-6.17-4.02c0.1,0.93,0.19,1.79,0.27,2.53l5.6,3.65C251.33,157.2,251.43,156.48,251.53,155.71z"/>
		<path d="M251.12,158.64l-5.45-3.98c0.13,1.3,0.21,2.21,0.23,2.51c0,0.03,0,0.07,0,0.1l4.88,3.56
			C250.89,160.19,251,159.46,251.12,158.64z"/>
		<path d="M245.92,157.53c0,0.66-0.1,1.54-0.21,2.34l4.62,3.72c0.05-0.27,0.19-1.03,0.38-2.21L245.92,157.53z"/>
	</g>
	<g class="st0">
		<path d="M180.43,160.86c0.07,0.29,0.07,0.6-0.01,0.88C180.51,161.46,180.51,161.15,180.43,160.86z"/>
	</g>
	<g class="st0">
		<path d="M152.81,162.86c-0.08,0.29-0.08,0.6,0.01,0.88C152.74,163.46,152.74,163.15,152.81,162.86z"/>
		<path d="M255.38,168.67c-0.56,0-2.94-1.12-2.94-1.41c0-0.3,2.58-1.65,3.11-1.65c0.53,0,0.65,0.82,1.15,0.79
			c0.47-0.02,1.86-1.07,2.03-1.2c-0.05-0.98-0.34-1.83-1.44-2.53c-1.28-0.83-3.84-0.37-6.4-0.92c-2.57-0.55-22.15-6.95-37.7-6.95
			c-14.8,0-25.29,5.38-29.35,7.87c-0.38,0.23-0.67,0.56-0.91,0.93c-0.71,1.12-1.69,1.99-2.65,2.63v-2.01l0.14-0.48
			c0.08-0.28,0.08-0.59,0.01-0.88c-0.04-0.13-0.09-0.26-0.16-0.39c-0.22-0.38-0.58-0.65-1-0.76c-6.3-1.59-9.49-1.6-12.57-1.6h-0.08
			c-3.16,0-6.36,0.01-12.66,1.6c-0.42,0.11-0.77,0.38-0.99,0.76c-0.07,0.13-0.13,0.26-0.16,0.39c-0.07,0.29-0.07,0.6,0.01,0.88
			l0.14,0.48v2c-0.96-0.64-1.93-1.5-2.64-2.62c-0.24-0.37-0.53-0.7-0.91-0.93c-4.06-2.49-14.55-7.87-29.35-7.87
			c-15.55,0-35.13,6.4-37.7,6.95c-2.56,0.55-5.12,0.09-6.4,0.92c-1.1,0.7-1.39,1.55-1.44,2.53c0.17,0.13,1.56,1.18,2.03,1.2
			c0.5,0.03,0.62-0.79,1.15-0.79c0.53,0,3.11,1.35,3.11,1.65c0,0.29-2.38,1.41-2.94,1.41c-0.55,0-1.06-0.86-1.23-0.87
			c-0.44-0.03-1.4-0.08-2.1-0.31c0.1,0.71,0.4,1.37,1.24,1.77c1.55,0.73,1.97,0.74,2.92,1.73c1.44,1.51,3.58,4.44,6.5,15.01
			c3.46,12.54,11.97,21.12,18.12,24.71c6.59,3.84,11.73,5.22,20.13,4.76c8.24-0.46,18.06-4.1,25.32-15.01
			c5.36-8.05,7.94-17,7.76-30.63v-4.85c0.27-0.05,0.57-0.11,0.88-0.16c0.31-0.05,0.64-0.1,0.99-0.15c0.03-0.01,0.05-0.01,0.07-0.01
			c0.23-0.04,0.47-0.07,0.72-0.1c0.25-0.03,0.51-0.06,0.77-0.09c0.17-0.02,0.34-0.04,0.52-0.06c0.28-0.03,0.58-0.06,0.88-0.08
			c0.17-0.02,0.34-0.03,0.52-0.05c0.27-0.02,0.56-0.04,0.85-0.05c0.45-0.03,0.91-0.06,1.39-0.08c0.79-0.02,1.62-0.04,2.5-0.04
			s1.71,0.02,2.5,0.04c0.48,0.02,0.94,0.05,1.39,0.08c0.29,0.02,0.58,0.03,0.85,0.05c0.18,0.02,0.35,0.03,0.52,0.05
			c0.31,0.02,0.6,0.05,0.88,0.08c0.18,0.02,0.35,0.04,0.52,0.06c0.27,0.03,0.52,0.06,0.77,0.09c0.25,0.03,0.49,0.06,0.72,0.1
			c0.03,0,0.05,0,0.07,0.01c0.35,0.05,0.68,0.1,0.99,0.15c0.31,0.05,0.61,0.11,0.88,0.16v4.85h0.01
			c-0.18,13.63,2.4,22.58,7.76,30.63c7.26,10.91,17.08,14.55,25.32,15.01c8.4,0.46,13.54-0.92,20.13-4.76
			c6.15-3.59,14.66-12.17,18.12-24.71c2.92-10.57,5.06-13.5,6.5-15.01c0.95-0.99,1.37-1,2.92-1.73c0.84-0.4,1.14-1.06,1.24-1.77
			c-0.7,0.23-1.66,0.28-2.1,0.31C256.44,167.81,255.93,168.67,255.38,168.67z M149.71,191.49c-4.76,14.09-15.64,21.05-29.1,20.96
			c-13.45-0.1-20.65-7.2-26.62-16.11c-6.14-9.15-6.2-23.09-4.03-27.18c5.58-10.52,20.13-11.34,29.56-11.34
			c9.42,0,15.73,1.83,22.14,5.12C148.07,166.24,154.47,177.4,149.71,191.49z M155.01,169.83c-0.1,0.6-0.63,1.05-1.26,1.05
			c-0.71,0-1.28-0.57-1.28-1.28c0-0.41,0.19-0.78,0.49-1c0.22-0.18,0.49-0.28,0.79-0.28c0.07,0,0.14,0.01,0.21,0.02
			c0.33,0.05,0.63,0.23,0.82,0.49c0.16,0.21,0.26,0.48,0.26,0.77C155.04,169.68,155.03,169.76,155.01,169.83z M155.25,167.45
			c-0.38-0.16-0.82-0.36-1.29-0.62v-1.51c0.15,0.05,0.32,0.08,0.48,0.08c0.13,0,0.25-0.02,0.38-0.05c0.21-0.05,0.44-0.11,0.71-0.17
			v2.42C155.44,167.54,155.35,167.49,155.25,167.45z M176.71,163.96c-0.01,0-0.01,0-0.02,0c-0.23-0.05-0.47-0.09-0.72-0.13
			c-0.75-0.12-1.6-0.25-2.56-0.35c-0.27-0.03-0.54-0.06-0.83-0.09c-0.65-0.06-1.36-0.12-2.1-0.17c-0.71-0.04-1.46-0.07-2.24-0.09
			c-0.52-0.01-1.06-0.02-1.62-0.02s-1.1,0.01-1.62,0.02c-0.78,0.02-1.53,0.05-2.24,0.09c-0.74,0.05-1.44,0.1-2.1,0.17
			c-0.29,0.03-0.56,0.06-0.83,0.09c-0.96,0.1-1.81,0.23-2.56,0.35c-0.25,0.04-0.49,0.08-0.72,0.13c-0.81,0.15-1.47,0.3-1.98,0.42
			c-0.16,0.04-0.31,0.01-0.43-0.08c-0.05-0.03-0.09-0.08-0.12-0.13c-0.04-0.05-0.06-0.1-0.08-0.16l-0.16-0.55
			c-0.05-0.17-0.03-0.34,0.06-0.49c0.08-0.15,0.21-0.25,0.37-0.29c6.18-1.56,9.17-1.57,12.32-1.57h0.09c3.24,0,6.23,0.01,12.41,1.57
			c0.15,0.04,0.29,0.14,0.37,0.29c0.09,0.15,0.11,0.32,0.06,0.49l-0.11,0.37l-0.05,0.18c-0.02,0.06-0.04,0.11-0.08,0.16
			c-0.03,0.05-0.07,0.1-0.12,0.13c-0.12,0.08-0.28,0.12-0.44,0.08C178.16,164.25,177.51,164.11,176.71,163.96z M177.71,167.6v-2.42
			c0.26,0.06,0.5,0.12,0.71,0.17c0.29,0.07,0.59,0.06,0.86-0.03v1.52c-0.47,0.25-0.9,0.45-1.28,0.61
			C177.9,167.49,177.8,167.54,177.71,167.6z M179.5,170.88c-0.63,0-1.16-0.45-1.26-1.05c-0.02-0.07-0.03-0.15-0.03-0.23
			c0-0.29,0.1-0.56,0.26-0.77c0.19-0.25,0.48-0.44,0.81-0.48c0.07-0.02,0.14-0.03,0.22-0.03c0.29,0,0.56,0.1,0.78,0.27
			c0.3,0.23,0.5,0.59,0.5,1.01C180.78,170.31,180.21,170.88,179.5,170.88z M239.26,196.34c-5.97,8.91-13.17,16.01-26.62,16.11
			c-13.46,0.09-24.34-6.87-29.1-20.96c-4.76-14.09,1.64-25.25,8.05-28.55c6.41-3.29,12.72-5.12,22.14-5.12
			c9.43,0,23.98,0.82,29.56,11.34C245.46,173.25,245.4,187.19,239.26,196.34z"/>
	</g>
</g>
</svg>
