<?xml version="1.0" encoding="utf-8"?>
<!-- Generator: Adobe Illustrator 24.3.0, SVG Export Plug-In . SVG Version: 6.00 Build 0)  -->
<svg version="1.1" id="Layer_1" xmlns="http://www.w3.org/2000/svg" xmlns:xlink="http://www.w3.org/1999/xlink" x="0px" y="0px"
	 viewBox="0 0 9.9 9.5" style="enable-background:new 0 0 9.9 9.5;" xml:space="preserve">
<style type="text/css">
	.st0{fill:#47BEC7;}
</style>
<path class="st0" d="M9.7,3.4L6.4,3.2l-1.2-3c0-0.1-0.1-0.1-0.1-0.1C5.1,0,5,0,5,0C4.9,0,4.7,0.1,4.7,0.2l-1.2,3L0.3,3.4
	C0.2,3.4,0.1,3.5,0,3.6c0,0.1,0,0.2,0.1,0.3l2.5,2L1.8,9.1c0,0.1,0,0.2,0.1,0.3c0.1,0.1,0.2,0.1,0.3,0L5,7.7l2.7,1.8
	c0.1,0,0.1,0.1,0.2,0.1S8,9.4,8,9.4c0.1-0.1,0.1-0.2,0.1-0.3L7.3,6l2.5-2.1c0.1-0.1,0.1-0.2,0.1-0.3c0-0.1,0-0.1-0.1-0.1
	C9.8,3.4,9.7,3.4,9.7,3.4"/>
</svg>
