<svg id="Layer_1" data-name="Layer 1" xmlns="http://www.w3.org/2000/svg" viewBox="0 0 24 23.4"><defs><style>.cls-1{fill:#47bec7;}</style></defs><path class="cls-1" d="M8.86,7.73c-.4,0-.77,0-.95,0v3.83h0c.24,0,.41,0,.8,0,1.16,0,2.25-.41,2.25-2C11,8.37,10.18,7.73,8.86,7.73ZM19.68,0H4.4A4.4,4.4,0,0,0,0,4.4V19.08A4.33,4.33,0,0,0,4.32,23.4H19.68A4.33,4.33,0,0,0,24,19.08V4.32A4.34,4.34,0,0,0,19.68,0Zm-11,13.2-.78,0V17c0,.08,0,.11-.11.11H6.26c-.08,0-.11,0-.11-.11V6.32h0c0-.06,0-.11.1-.11.64,0,1.57,0,2.55,0,2.75,0,3.94,1.5,3.94,3.44C12.73,12.12,10.91,13.2,8.68,13.2Zm9.09-5.52c0,.08,0,.11-.12.1a2.18,2.18,0,0,0-.43,0c-.56,0-.84.4-.84,1.18v.5h1.27c.08,0,.1,0,.1.08v1.35c0,.08,0,.1-.1.11H16.38v6c0,.06,0,.11-.11.11H14.73a.1.1,0,0,1-.11-.11V11H13.7c-.06,0-.08,0-.08-.11V9.52c0-.08,0-.1.08-.1h.91v-.5a3.3,3.3,0,0,1,.32-1.56A2.09,2.09,0,0,1,17,6.16a1.94,1.94,0,0,1,.66.08c.08,0,.1.06.1.14v1.3Z"/></svg>